<svg xmlns="http://www.w3.org/2000/svg" width="183" height="56" viewBox="0 0 183 56" fill="none">
        <path
            d="M55.4376 27.7192C55.4376 12.4159 43.0345 0 27.7188 0C12.4157 0 0 12.4034 0 27.7192C0 43.0225 12.4032 55.4385 27.7188 55.4385C35.2009 55.4385 40.8878 52.89 45.9595 48.4459C46.2231 48.1948 46.6374 48.1571 46.9512 48.3706L54.132 54.1579C54.5086 54.4216 55.0359 54.3212 55.287 53.9445C55.3874 53.8064 55.4376 53.6432 55.4376 53.48C55.4376 49.9022 55.4376 31.1841 55.4376 27.7318V27.7192ZM27.6058 42.8216C19.2701 42.7338 12.5789 35.9044 12.6542 27.556C12.6668 25.6729 12.7923 13.5207 12.7923 13.5207C12.7672 13.2821 12.943 13.0687 13.1815 13.0562C13.2945 13.0562 13.42 13.0812 13.5079 13.1691L17.387 16.3705C17.5502 16.4834 17.7762 16.4708 17.9268 16.3328C20.7263 13.9349 23.8271 12.5917 27.9071 12.6293C36.2554 12.6293 42.9968 19.421 42.9842 27.7569C42.9842 36.1053 36.1926 42.8468 27.8569 42.8342C27.769 42.8342 27.6812 42.8342 27.5807 42.8342L27.6058 42.8216Z"
            fill="url(#paint0_linear_432_27)" />
        <path
            d="M76.9796 34.1468V38.365H74.4438C72.636 38.365 71.23 37.9256 70.2257 37.0343C69.2214 36.1555 68.7067 34.7118 68.7067 32.7157V26.2378H66.7231V22.1075H68.7067V18.1531H73.6905V22.1075H76.9545V26.2378H73.6905V32.7659C73.6529 33.1426 73.7784 33.5317 74.042 33.8079C74.381 34.0589 74.7953 34.1719 75.2095 34.1343H76.9671L76.9796 34.1468Z"
            fill="#3D3A3A" />
        <path
            d="M78.8508 25.8236C79.4283 24.631 80.3196 23.6141 81.4369 22.9111C82.5291 22.2331 83.7845 21.8816 85.0776 21.8942C86.1195 21.8691 87.1615 22.1076 88.0905 22.5972C88.9065 23.024 89.5969 23.6518 90.0865 24.4301V22.1327H95.0578V38.3776H90.074V36.0802C89.5718 36.8585 88.8813 37.4863 88.0653 37.9131C87.1364 38.3901 86.0944 38.6412 85.0524 38.6161C83.7719 38.6161 82.5166 38.2646 81.4495 37.5867C80.3322 36.8711 79.4283 35.8543 78.8634 34.6491C78.2106 33.2681 77.8842 31.7617 77.9219 30.2426C77.8842 28.7236 78.2106 27.2171 78.876 25.8487L78.8508 25.8236ZM89.0445 27.305C87.7138 25.9115 85.5044 25.8613 84.1109 27.192C84.0732 27.2171 84.0481 27.2547 84.0105 27.2924C83.32 27.9954 82.9811 28.9746 82.9811 30.2175C82.9811 31.4603 83.32 32.4395 84.0105 33.1676C84.6507 33.8707 85.5672 34.2725 86.5212 34.2599C87.4753 34.2725 88.3917 33.8832 89.0445 33.1802C89.735 32.4646 90.074 31.4855 90.074 30.2426C90.074 28.9998 89.735 28.0205 89.0445 27.305Z"
            fill="#0492C9" />
        <path d="M102.753 16.835V38.3776H97.769V16.835H102.753Z" fill="#0492C9" />
        <path d="M110.473 16.835V38.3776H105.489V16.835H110.473Z" fill="#0492C9" />
        <path
            d="M123.14 38.365L118.194 31.5482V38.365H113.223V16.8224H118.207V28.7235L123.128 22.1076H129.266L122.512 30.2552L129.329 38.3524H123.14V38.365Z"
            fill="#3D3A3A" />
        <path
            d="M130.51 37.8252C129.97 37.3355 129.668 36.6451 129.681 35.9169C129.668 35.1762 129.97 34.4732 130.51 33.9711C131.087 33.4312 131.865 33.1551 132.644 33.1802C133.422 33.1551 134.188 33.4312 134.753 33.9711C135.293 34.4732 135.594 35.1762 135.581 35.9169C135.594 36.6451 135.293 37.3355 134.753 37.8252C134.175 38.3524 133.422 38.6286 132.644 38.6035C131.853 38.6412 131.087 38.3524 130.51 37.8252Z"
            fill="#3D3A3A" />
        <path
            d="M163.199 23.7898C164.392 25.0075 164.995 26.7149 164.982 28.8867V38.3775H160.036V29.5521C160.036 28.5101 159.76 27.6941 159.207 27.1166C157.902 25.9742 155.943 25.9742 154.638 27.1166C154.085 27.6941 153.809 28.4976 153.809 29.5521V38.3775H148.863V29.5521C148.863 28.5101 148.587 27.6941 148.034 27.1166C146.729 25.9742 144.77 25.9742 143.465 27.1166C142.912 27.6941 142.636 28.4976 142.636 29.5521V38.3775H137.652V22.1327H142.636V24.1664C143.151 23.4759 143.829 22.9236 144.62 22.547C145.486 22.1327 146.427 21.9318 147.382 21.9443C148.524 21.9192 149.654 22.1954 150.658 22.7352C151.612 23.2499 152.391 24.0283 152.918 24.9699C153.495 24.066 154.286 23.3128 155.215 22.7855C156.169 22.2206 157.261 21.9318 158.379 21.9443C160.4 21.9443 162.007 22.5595 163.212 23.7772L163.199 23.7898Z"
            fill="#3D3A3A" />
        <path
            d="M182.834 31.4352H171.573C171.648 32.4395 171.975 33.2178 172.552 33.7451C173.117 34.2849 173.883 34.5737 174.661 34.5486C175.904 34.5486 176.77 34.0213 177.247 32.9793H182.545C181.993 35.1512 180.474 36.959 178.415 37.8629C177.285 38.365 176.067 38.616 174.837 38.5909C173.356 38.616 171.9 38.2645 170.594 37.5615C169.364 36.8961 168.347 35.8793 167.681 34.649C166.953 33.2932 166.602 31.7616 166.639 30.2174C166.602 28.6858 166.953 27.1542 167.669 25.7984C168.334 24.5681 169.339 23.5638 170.569 22.8859C173.23 21.5426 176.369 21.5301 179.043 22.8608C180.248 23.5011 181.252 24.4928 181.917 25.6855C182.633 27.0036 182.985 28.4724 182.947 29.9663C182.947 30.4559 182.909 30.9456 182.846 31.4226L182.834 31.4352ZM177.825 28.6733C177.863 27.895 177.549 27.1543 176.959 26.6396C176.344 26.1249 175.565 25.8612 174.774 25.8863C174.009 25.8612 173.255 26.1248 172.665 26.6144C172.063 27.1417 171.686 27.8824 171.598 28.6859H177.812L177.825 28.6733Z"
            fill="#3D3A3A" />
        <defs>
            <linearGradient id="paint0_linear_432_27" x1="21.0527" y1="-10.6458" x2="34.3602" y2="65.9838"
                gradientUnits="userSpaceOnUse">
                <stop stop-color="#76CBF1" />
                <stop offset="0.17" stop-color="#6BC5ED" />
                <stop offset="0.47" stop-color="#4AB5E1" />
                <stop offset="0.86" stop-color="#199CD0" />
                <stop offset="1" stop-color="#0492C9" />
            </linearGradient>
        </defs>
    </svg>